<?xml version="1.0" encoding="UTF-8"?>
<!DOCTYPE svg PUBLIC "-//W3C//DTD SVG 1.1//EN" "http://www.w3.org/Graphics/SVG/1.1/DTD/svg11.dtd">
<svg xmlns="http://www.w3.org/2000/svg" version="1.1" width="1200px" height="284px" style="shape-rendering:geometricPrecision; text-rendering:geometricPrecision; image-rendering:optimizeQuality; fill-rule:evenodd; clip-rule:evenodd" xmlns:xlink="http://www.w3.org/1999/xlink">
<g><path style="opacity:0.967" fill="#1c396e" d="M 811.5,-0.5 C 822.5,-0.5 833.5,-0.5 844.5,-0.5C 844.807,5.09345 844.473,10.5934 843.5,16C 823.863,15.6602 805.196,19.6602 787.5,28C 783.656,30.422 779.99,33.0887 776.5,36C 752.355,64.6328 728.688,93.6328 705.5,123C 741.167,160 776.833,197 812.5,234C 822.601,242.769 833.268,250.769 844.5,258C 852.556,262.682 861.056,266.182 870,268.5C 870.789,272.091 870.622,275.591 869.5,279C 863.491,280.963 857.491,282.463 851.5,283.5C 842.167,283.5 832.833,283.5 823.5,283.5C 799.256,280.049 777.59,270.549 758.5,255C 750.667,247.833 742.833,240.667 735,233.5C 713.365,210.197 691.365,187.197 669,164.5C 668.5,203.165 668.333,241.832 668.5,280.5C 649.833,280.5 631.167,280.5 612.5,280.5C 612.553,200.141 611.719,119.808 610,39.5C 607.784,20.2811 596.951,11.9478 577.5,14.5C 577.5,9.83333 577.5,5.16667 577.5,0.5C 597.169,0.333381 616.836,0.500048 636.5,1C 649.231,1.75093 658.064,7.9176 663,19.5C 664.969,25.0127 666.303,30.6793 667,36.5C 667.904,68.8283 668.571,101.162 669,133.5C 694.333,101.5 719.667,69.5 745,37.5C 762.014,15.5829 784.181,2.91625 811.5,-0.5 Z"/></g>
<g><path style="opacity:0.961" fill="#1c396e" d="M 877.5,-0.5 C 940.5,-0.5 1003.5,-0.5 1066.5,-0.5C 1081.17,3.01456 1089.34,12.3479 1091,27.5C 1091.5,41.496 1091.67,55.496 1091.5,69.5C 1086.83,69.5 1082.17,69.5 1077.5,69.5C 1078.58,39.4317 1064.24,22.9317 1034.5,20C 1012.17,19.5 989.836,19.3334 967.5,19.5C 967.5,54.8333 967.5,90.1667 967.5,125.5C 998.5,125.5 1029.5,125.5 1060.5,125.5C 1060.5,132.167 1060.5,138.833 1060.5,145.5C 1029.5,146.088 998.503,146.588 967.5,147C 968.497,190.761 968.83,234.594 968.5,278.5C 949.861,279.448 931.194,279.782 912.5,279.5C 912.16,201.166 911.66,122.833 911,44.5C 910.836,22.1667 899.669,11.8334 877.5,13.5C 877.5,8.83333 877.5,4.16667 877.5,-0.5 Z"/></g>
<g><path style="opacity:0.962" fill="#1c396e" d="M 417.5,1.5 C 424.532,1.16967 431.532,1.503 438.5,2.5C 470.942,78.3846 503.109,154.385 535,230.5C 541.324,246.49 552.158,258.323 567.5,266C 570.734,266.711 573.901,267.545 577,268.5C 577.499,272.486 577.666,276.486 577.5,280.5C 552.601,285.012 528.935,281.512 506.5,270C 491.631,260.133 480.798,246.966 474,230.5C 470.598,222.126 467.098,213.793 463.5,205.5C 426.171,204.333 388.838,204.167 351.5,205C 340.038,230.092 328.705,255.259 317.5,280.5C 309.855,281.665 302.188,281.831 294.5,281C 336.197,188.11 377.197,94.943 417.5,1.5 Z M 407.5,77.5 C 408.75,77.5774 409.583,78.244 410,79.5C 424.429,114.189 439.262,148.689 454.5,183C 423.168,183.849 391.834,184.182 360.5,184C 376.582,148.67 392.249,113.17 407.5,77.5 Z"/></g>
<g><path style="opacity:0.8" fill="#1c396e" d="M 1148.5,1.5 C 1150.94,2.49865 1152.61,4.33199 1153.5,7C 1146.09,13.7468 1145.76,20.7468 1152.5,28C 1156.59,29.2272 1160.09,28.3939 1163,25.5C 1165.33,19.8333 1167.67,14.1667 1170,8.5C 1175.83,1.99675 1182.67,0.830079 1190.5,5C 1198.2,12.9304 1199.37,21.7638 1194,31.5C 1191.67,35.5 1189.33,35.5 1187,31.5C 1186.33,30.5 1186.33,29.5 1187,28.5C 1188.38,27.4495 1189.38,26.1161 1190,24.5C 1190.67,21.1667 1190.67,17.8333 1190,14.5C 1186.11,8.74088 1181.44,8.07421 1176,12.5C 1173.67,18.1667 1171.33,23.8333 1169,29.5C 1163.66,35.6316 1157.16,37.1316 1149.5,34C 1139.17,23.5254 1138.84,12.6921 1148.5,1.5 Z"/></g>
<g><path style="opacity:0.991" fill="#e20814" d="M 269.5,175.5 C 269.5,174.167 269.5,172.833 269.5,171.5C 271.175,133.705 254.175,108.871 218.5,97C 190.575,90.6417 167.075,98.1417 148,119.5C 142.093,130.312 136.427,141.312 131,152.5C 114.656,176.526 91.8227,187.36 62.5,185C 37.5669,179.782 19.7336,165.615 9,142.5C 5.84407,131.211 3.67741,119.878 2.5,108.5C 12.1035,69.7332 34.1035,40.2332 68.5,20C 109.232,-1.07525 150.899,-3.07525 193.5,14C 250.422,43.3192 277.256,90.1525 274,154.5C 273.343,161.811 271.843,168.811 269.5,175.5 Z"/></g>
<g><path style="opacity:0.773" fill="#1c396e" d="M 1177.5,44.5 C 1178.81,46.8953 1178.81,49.3953 1177.5,52C 1169.21,54.4889 1160.88,56.8222 1152.5,59C 1160.86,61.731 1169.19,64.5643 1177.5,67.5C 1178.77,69.6948 1178.77,71.8615 1177.5,74C 1169.23,76.8684 1160.89,79.535 1152.5,82C 1160.8,84.5992 1169.13,87.0992 1177.5,89.5C 1178.83,91.8333 1178.83,94.1667 1177.5,96.5C 1166.26,92.6989 1154.93,89.1989 1143.5,86C 1142.17,83.6667 1142.17,81.3333 1143.5,79C 1151.89,76.535 1160.23,73.8684 1168.5,71C 1160.03,67.6753 1151.36,64.8419 1142.5,62.5C 1142.5,60.1667 1142.5,57.8333 1142.5,55.5C 1154.44,52.4056 1166.11,48.7389 1177.5,44.5 Z"/></g>
<g><path style="opacity:0.991" fill="#183a6c" d="M 269.5,171.5 C 268.475,174.974 267.808,178.64 267.5,182.5C 250.126,232.033 215.792,262.866 164.5,275C 103.982,284.397 56.149,264.23 21,214.5C 9.74079,196.213 2.57412,176.547 -0.5,155.5C -0.5,144.833 -0.5,134.167 -0.5,123.5C 0.591987,118.638 1.59199,113.638 2.5,108.5C 3.67741,119.878 5.84407,131.211 9,142.5C 19.7336,165.615 37.5669,179.782 62.5,185C 91.8227,187.36 114.656,176.526 131,152.5C 136.427,141.312 142.093,130.312 148,119.5C 167.075,98.1417 190.575,90.6417 218.5,97C 254.175,108.871 271.175,133.705 269.5,171.5 Z"/></g>
<g><path style="opacity:0.756" fill="#1c396e" d="M 1155.5,105.5 C 1169.46,103.794 1177.46,109.794 1179.5,123.5C 1177.73,135.446 1170.9,140.779 1159,139.5C 1158.5,130.506 1158.33,121.506 1158.5,112.5C 1149.82,114.377 1146.66,119.711 1149,128.5C 1150.31,130.641 1151.81,132.641 1153.5,134.5C 1152.99,137.532 1151.32,138.699 1148.5,138C 1140.01,127.388 1140.68,117.388 1150.5,108C 1152.31,107.243 1153.98,106.41 1155.5,105.5 Z M 1164.5,112.5 C 1170.54,113.533 1173.54,117.2 1173.5,123.5C 1173.43,128.902 1170.77,132.235 1165.5,133.5C 1164.5,126.532 1164.17,119.532 1164.5,112.5 Z"/></g>
<g><path style="opacity:0.772" fill="#1c396e" d="M 1199.5,181.5 C 1199.5,183.833 1199.5,186.167 1199.5,188.5C 1180.83,188.5 1162.17,188.5 1143.5,188.5C 1143.5,186.5 1143.5,184.5 1143.5,182.5C 1144.87,182.657 1146.21,182.49 1147.5,182C 1141.89,175.074 1141.06,167.574 1145,159.5C 1153.09,149.533 1162.59,148.033 1173.5,155C 1180.67,163.181 1181.33,171.847 1175.5,181C 1175.83,181.333 1176.17,181.667 1176.5,182C 1184.15,181.931 1191.82,181.764 1199.5,181.5 Z M 1156.5,157.5 C 1169.37,156.206 1174.87,161.872 1173,174.5C 1168.91,181.417 1163.08,183.584 1155.5,181C 1148.93,177.345 1146.76,171.845 1149,164.5C 1150.74,161.254 1153.24,158.921 1156.5,157.5 Z"/></g>
<g><path style="opacity:0.937" fill="#af2744" d="M 269.5,171.5 C 269.5,172.833 269.5,174.167 269.5,175.5C 269.59,178.152 268.924,180.485 267.5,182.5C 267.808,178.64 268.475,174.974 269.5,171.5 Z"/></g>
<g><path style="opacity:0.794" fill="#1c396e" d="M 1155.5,201.5 C 1173.54,200.035 1181.37,208.035 1179,225.5C 1174.99,233.354 1168.49,237.021 1159.5,236.5C 1159.67,226.828 1159.5,217.161 1159,207.5C 1150.71,209.784 1147.37,215.117 1149,223.5C 1149.91,226.576 1151.74,228.909 1154.5,230.5C 1151.78,235.745 1148.95,235.745 1146,230.5C 1139.68,217.633 1142.84,207.966 1155.5,201.5 Z M 1164.5,207.5 C 1173.57,211.222 1176.07,217.556 1172,226.5C 1169.76,228.202 1167.26,229.202 1164.5,229.5C 1164.5,222.167 1164.5,214.833 1164.5,207.5 Z"/></g>
<g><path style="opacity:0.781" fill="#1c396e" d="M 1171.5,248.5 C 1174.17,248.5 1176.83,248.5 1179.5,248.5C 1179.66,250.527 1179.5,252.527 1179,254.5C 1174.89,255.063 1174.55,256.396 1178,258.5C 1181.58,265.268 1180.75,271.435 1175.5,277C 1173.91,277.862 1172.25,278.529 1170.5,279C 1161.51,279.5 1152.51,279.666 1143.5,279.5C 1143.5,277.5 1143.5,275.5 1143.5,273.5C 1152.57,273.881 1161.57,273.381 1170.5,272C 1175.13,268.122 1175.63,263.622 1172,258.5C 1170.58,257.54 1169.08,256.707 1167.5,256C 1159.51,255.5 1151.51,255.334 1143.5,255.5C 1143.5,253.5 1143.5,251.5 1143.5,249.5C 1153.01,249.827 1162.35,249.494 1171.5,248.5 Z"/></g>
</svg>
